<svg xmlns="http://www.w3.org/2000/svg" width="44" height="42" viewBox="0 0 44 42"><g><g><path fill="#e6a056" d="M28.35 21.458c0 3.623-3.024 6.573-6.738 6.573-3.714 0-6.737-2.95-6.737-6.573 0-3.626 3.023-6.573 6.737-6.573s6.737 2.947 6.737 6.573zm15.115-8.32v15.715c0 7.26-6.033 13.146-13.475 13.146H13.882C6.44 42 .407 36.113.407 28.853V13.137C.407 5.877 6.44-.009 13.882-.009H29.99c7.442 0 13.475 5.886 13.475 13.146zm-11.073 8.32c0-5.808-4.827-10.517-10.78-10.517-5.953 0-10.78 4.709-10.78 10.517s4.827 10.517 10.78 10.517c5.953 0 10.78-4.709 10.78-10.517zm2.245-11.306c0-.774-.643-1.4-1.437-1.4-.793 0-1.436.626-1.436 1.4 0 .775.643 1.402 1.436 1.402.794 0 1.437-.627 1.437-1.402z"/></g></g></svg>